<svg viewBox="0 0 100 120" xmlns="http://www.w3.org/2000/svg">
  <!-- Goalkeeper body -->
  <g id="goalkeeper">
    <!-- Head -->
    <circle cx="50" cy="25" r="12" fill="#ffdbac"/>
    
    <!-- Hair -->
    <path d="M 38 20 Q 50 10 62 20 Q 60 15 50 15 Q 40 15 38 20" fill="#8B4513"/>
    
    <!-- Eyes -->
    <circle cx="46" cy="23" r="2" fill="#000"/>
    <circle cx="54" cy="23" r="2" fill="#000"/>
    
    <!-- Mouth -->
    <path d="M 47 28 Q 50 30 53 28" stroke="#000" stroke-width="1" fill="none"/>
    
    <!-- Body -->
    <rect x="40" y="37" width="20" height="35" rx="3" fill="#4CAF50"/>
    
    <!-- Arms -->
    <ellipse cx="32" cy="50" rx="6" ry="15" fill="#4CAF50" transform="rotate(-20 32 50)"/>
    <ellipse cx="68" cy="50" rx="6" ry="15" fill="#4CAF50" transform="rotate(20 68 50)"/>
    
    <!-- Hands -->
    <circle cx="28" cy="58" r="5" fill="#ffdbac"/>
    <circle cx="72" cy="58" r="5" fill="#ffdbac"/>
    
    <!-- Gloves -->
    <circle cx="28" cy="58" r="6" fill="#FFD700" opacity="0.8"/>
    <circle cx="72" cy="58" r="6" fill="#FFD700" opacity="0.8"/>
    
    <!-- Legs -->
    <rect x="43" y="72" width="6" height="25" fill="#333"/>
    <rect x="51" y="72" width="6" height="25" fill="#333"/>
    
    <!-- Feet -->
    <ellipse cx="46" cy="102" rx="8" ry="4" fill="#000"/>
    <ellipse cx="54" cy="102" rx="8" ry="4" fill="#000"/>
    
    <!-- Jersey number -->
    <text x="50" y="55" text-anchor="middle" font-family="Arial" font-size="8" font-weight="bold" fill="#fff">1</text>
  </g>
</svg>